<?xml version="1.0" encoding="UTF-8"?>
<svg id="Layer_2" data-name="Layer 2" xmlns="http://www.w3.org/2000/svg" viewBox="0 0 207.51 207.55">
  <defs>
    <style>
      .cls-1 {
        fill: #bababa;
      }

      .cls-1, .cls-2 {
        stroke: #4a4a4a;
        stroke-miterlimit: 10;
        stroke-width: 3px;
      }

      .cls-2 {
        fill: #7d7d7d;
      }
    </style>
  </defs>
  <g id="Layer_1-2" data-name="Layer 1">
    <g>
      <path class="cls-2" d="M103.03,18.07c-46.39,0-83.99,37.6-83.99,83.99s37.6,83.99,83.99,83.99,83.99-37.6,83.99-83.99S149.42,18.07,103.03,18.07ZM103.03,178.88c-42.42,0-76.81-34.39-76.81-76.81S60.61,25.26,103.03,25.26s76.81,34.39,76.81,76.81-34.39,76.81-76.81,76.81Z"/>
      <g>
        <circle class="cls-1" cx="39.34" cy="40.35" r="11.88"/>
        <circle class="cls-1" cx="168.17" cy="40.35" r="11.88"/>
        <circle class="cls-1" cx="39.34" cy="167.2" r="11.88"/>
        <circle class="cls-1" cx="168.17" cy="167.2" r="11.88"/>
        <circle class="cls-1" cx="13.38" cy="105.67" r="11.88"/>
        <circle class="cls-1" cx="103.25" cy="13.38" r="11.88"/>
        <circle class="cls-1" cx="104.26" cy="194.17" r="11.88"/>
        <circle class="cls-1" cx="194.14" cy="101.88" r="11.88"/>
      </g>
      <rect class="cls-1" x="89.55" y="88.58" width="26.96" height="26.96" transform="translate(-41.99 102.75) rotate(-45)"/>
      <line class="cls-2" x1="103.03" y1="25.26" x2="103.03" y2="178.88"/>
      <line class="cls-2" x1="179.84" y1="102.07" x2="26.22" y2="102.07"/>
      <line class="cls-2" x1="157.35" y1="47.75" x2="48.72" y2="156.38"/>
      <line class="cls-2" x1="157.35" y1="156.38" x2="48.72" y2="47.75"/>
    </g>
  </g>
</svg>