<?xml version="1.0" encoding="UTF-8"?>
<svg id="Layer_2" data-name="Layer 2" xmlns="http://www.w3.org/2000/svg" viewBox="0 0 115.87 150.98">
  <defs>
    <style>
      .cls-1, .cls-2 {
        fill: none;
      }

      .cls-3, .cls-4, .cls-5, .cls-6, .cls-2 {
        stroke-miterlimit: 10;
      }

      .cls-3, .cls-4, .cls-6 {
        stroke: #fff;
      }

      .cls-3, .cls-6 {
        fill: #1a71aa;
      }

      .cls-4 {
        fill: #ed1c24;
      }

      .cls-5 {
        fill: #fff;
      }

      .cls-5, .cls-2 {
        stroke: #e78c24;
        stroke-width: 2px;
      }

      .cls-6 {
        stroke-width: .75px;
      }
    </style>
  </defs>
  <g id="Layer_1-2" data-name="Layer 1">
    <g>
      <rect class="cls-3" x=".65" y="68.75" width="114.57" height="5.94"/>
      <g>
        <polygon class="cls-5" points="57.93 1.07 110.37 20.79 21.66 20.79 5.5 20.79 57.93 1.07"/>
        <polygon class="cls-4" points="57.93 1.07 91.33 20.79 34.83 20.79 24.54 20.79 57.93 1.07"/>
        <polygon class="cls-3" points="57.93 1.07 74.97 20.79 46.14 20.79 40.89 20.79 57.93 1.07"/>
        <polygon class="cls-2" points="57.93 1.07 110.37 20.79 21.66 20.79 5.5 20.79 57.93 1.07"/>
        <g>
          <path class="cls-6" d="M85.43,20.97c.03,1.85,1.55,3.34,3.42,3.34s3.4-1.49,3.42-3.34h-6.84Z"/>
          <path class="cls-6" d="M92.25,20.97c.03,1.85,1.55,3.34,3.42,3.34s3.4-1.49,3.42-3.34h-6.84Z"/>
          <path class="cls-6" d="M99.06,20.97c.03,1.85,1.55,3.34,3.42,3.34s3.4-1.49,3.42-3.34h-6.84Z"/>
          <path class="cls-6" d="M105.87,20.97c.03,1.85,1.55,3.34,3.42,3.34s3.4-1.49,3.42-3.34h-6.84Z"/>
          <path class="cls-6" d="M58.15,20.97c.03,1.85,1.55,3.34,3.42,3.34s3.4-1.49,3.42-3.34h-6.84Z"/>
          <path class="cls-6" d="M64.96,20.97c.03,1.85,1.55,3.34,3.42,3.34s3.4-1.49,3.42-3.34h-6.84Z"/>
          <path class="cls-6" d="M71.78,20.97c.03,1.85,1.55,3.34,3.42,3.34s3.4-1.49,3.42-3.34h-6.84Z"/>
          <path class="cls-6" d="M78.59,20.97c.03,1.85,1.55,3.34,3.42,3.34s3.4-1.49,3.42-3.34h-6.84Z"/>
        </g>
        <g>
          <path class="cls-6" d="M30.87,20.97c.03,1.85,1.55,3.34,3.42,3.34s3.4-1.49,3.42-3.34h-6.84Z"/>
          <path class="cls-6" d="M37.68,20.97c.03,1.85,1.55,3.34,3.42,3.34s3.4-1.49,3.42-3.34h-6.84Z"/>
          <path class="cls-6" d="M44.49,20.97c.03,1.85,1.55,3.34,3.42,3.34s3.4-1.49,3.42-3.34h-6.84Z"/>
          <path class="cls-6" d="M51.31,20.97c.03,1.85,1.55,3.34,3.42,3.34s3.4-1.49,3.42-3.34h-6.84Z"/>
          <path class="cls-6" d="M3.58,20.97c.03,1.85,1.55,3.34,3.42,3.34s3.4-1.49,3.42-3.34H3.58Z"/>
          <path class="cls-6" d="M10.4,20.97c.03,1.85,1.55,3.34,3.42,3.34s3.4-1.49,3.42-3.34h-6.84Z"/>
          <path class="cls-6" d="M17.21,20.97c.03,1.85,1.55,3.34,3.42,3.34s3.4-1.49,3.42-3.34h-6.84Z"/>
          <path class="cls-6" d="M24.03,20.97c.03,1.85,1.55,3.34,3.42,3.34s3.4-1.49,3.42-3.34h-6.84Z"/>
        </g>
      </g>
    </g>
    <g>
      <rect class="cls-1" x=".65" y="145.03" width="114.57" height="5.94"/>
      <g>
        <polygon class="cls-1" points="57.93 77.36 110.37 97.08 21.66 97.08 5.5 97.08 57.93 77.36"/>
        <polygon class="cls-1" points="57.93 77.36 91.33 97.08 34.83 97.08 24.54 97.08 57.93 77.36"/>
        <polygon class="cls-1" points="57.93 77.36 74.97 97.08 46.14 97.08 40.89 97.08 57.93 77.36"/>
        <polygon class="cls-1" points="57.93 77.36 110.37 97.08 21.66 97.08 5.5 97.08 57.93 77.36"/>
        <g>
          <path class="cls-1" d="M85.43,97.26c.03,1.85,1.55,3.34,3.42,3.34s3.4-1.49,3.42-3.34h-6.84Z"/>
          <path class="cls-1" d="M92.25,97.26c.03,1.85,1.55,3.34,3.42,3.34s3.4-1.49,3.42-3.34h-6.84Z"/>
          <path class="cls-1" d="M99.06,97.26c.03,1.85,1.55,3.34,3.42,3.34s3.4-1.49,3.42-3.34h-6.84Z"/>
          <path class="cls-1" d="M105.87,97.26c.03,1.85,1.55,3.34,3.42,3.34s3.4-1.49,3.42-3.34h-6.84Z"/>
          <path class="cls-1" d="M58.15,97.26c.03,1.85,1.55,3.34,3.42,3.34s3.4-1.49,3.42-3.34h-6.84Z"/>
          <path class="cls-1" d="M64.96,97.26c.03,1.85,1.55,3.34,3.42,3.34s3.4-1.49,3.42-3.34h-6.84Z"/>
          <path class="cls-1" d="M71.78,97.26c.03,1.85,1.55,3.34,3.42,3.34s3.4-1.49,3.42-3.34h-6.84Z"/>
          <path class="cls-1" d="M78.59,97.26c.03,1.85,1.55,3.34,3.42,3.34s3.4-1.49,3.42-3.34h-6.84Z"/>
        </g>
        <g>
          <path class="cls-1" d="M30.87,97.26c.03,1.85,1.55,3.34,3.42,3.34s3.4-1.49,3.42-3.34h-6.84Z"/>
          <path class="cls-1" d="M37.68,97.26c.03,1.85,1.55,3.34,3.42,3.34s3.4-1.49,3.42-3.34h-6.84Z"/>
          <path class="cls-1" d="M44.49,97.26c.03,1.85,1.55,3.34,3.42,3.34s3.4-1.49,3.42-3.34h-6.84Z"/>
          <path class="cls-1" d="M51.31,97.26c.03,1.85,1.55,3.34,3.42,3.34s3.4-1.49,3.42-3.34h-6.84Z"/>
          <path class="cls-1" d="M3.58,97.26c.03,1.85,1.55,3.34,3.42,3.34s3.4-1.49,3.42-3.34H3.58Z"/>
          <path class="cls-1" d="M10.4,97.26c.03,1.85,1.55,3.34,3.42,3.34s3.4-1.49,3.42-3.34h-6.84Z"/>
          <path class="cls-1" d="M17.21,97.26c.03,1.85,1.55,3.34,3.42,3.34s3.4-1.49,3.42-3.34h-6.84Z"/>
          <path class="cls-1" d="M24.03,97.26c.03,1.85,1.55,3.34,3.42,3.34s3.4-1.49,3.42-3.34h-6.84Z"/>
        </g>
      </g>
    </g>
  </g>
</svg>