<?xml version="1.0" encoding="UTF-8"?>
<svg id="Layer_2" data-name="Layer 2" xmlns="http://www.w3.org/2000/svg" viewBox="0 0 248.72 160.75">
  <defs>
    <style>
      .cls-1, .cls-2, .cls-3, .cls-4, .cls-5 {
        stroke-miterlimit: 10;
      }

      .cls-1, .cls-2, .cls-4 {
        stroke: #fff;
      }

      .cls-1, .cls-4 {
        fill: #1a71aa;
      }

      .cls-2 {
        fill: #ed1c24;
      }

      .cls-3 {
        fill: #fff;
      }

      .cls-3, .cls-5 {
        stroke: #e78c24;
        stroke-width: 2px;
      }

      .cls-4 {
        stroke-width: .75px;
      }

      .cls-5 {
        fill: none;
      }
    </style>
  </defs>
  <g id="Layer_1-2" data-name="Layer 1">
    <g>
      <rect class="cls-1" x=".5" y="147.4" width="247.72" height="12.85"/>
      <g>
        <polygon class="cls-3" points="124.36 1.07 237.73 43.71 45.93 43.71 10.99 43.71 124.36 1.07"/>
        <polygon class="cls-2" points="124.36 1.07 196.56 43.71 74.41 43.71 52.16 43.71 124.36 1.07"/>
        <polygon class="cls-1" points="124.36 1.07 161.2 43.71 98.87 43.71 87.52 43.71 124.36 1.07"/>
        <polygon class="cls-5" points="124.36 1.07 237.73 43.71 45.93 43.71 10.99 43.71 124.36 1.07"/>
        <g>
          <path class="cls-4" d="M183.82,44.09c.05,4,3.34,7.22,7.4,7.22s7.34-3.22,7.4-7.22h-14.79Z"/>
          <path class="cls-4" d="M198.55,44.09c.05,4,3.34,7.22,7.4,7.22s7.34-3.22,7.4-7.22h-14.79Z"/>
          <path class="cls-4" d="M213.28,44.09c.05,4,3.34,7.22,7.4,7.22s7.34-3.22,7.4-7.22h-14.79Z"/>
          <path class="cls-4" d="M228.01,44.09c.05,4,3.34,7.22,7.4,7.22s7.34-3.22,7.4-7.22h-14.79Z"/>
          <path class="cls-4" d="M124.83,44.09c.05,4,3.34,7.22,7.4,7.22s7.34-3.22,7.4-7.22h-14.79Z"/>
          <path class="cls-4" d="M139.56,44.09c.05,4,3.34,7.22,7.4,7.22s7.34-3.22,7.4-7.22h-14.79Z"/>
          <path class="cls-4" d="M154.29,44.09c.05,4,3.34,7.22,7.4,7.22s7.34-3.22,7.4-7.22h-14.79Z"/>
          <path class="cls-4" d="M169.02,44.09c.05,4,3.34,7.22,7.4,7.22s7.34-3.22,7.4-7.22h-14.79Z"/>
        </g>
        <g>
          <path class="cls-4" d="M65.84,44.09c.05,4,3.34,7.22,7.4,7.22s7.34-3.22,7.4-7.22h-14.79Z"/>
          <path class="cls-4" d="M80.57,44.09c.05,4,3.34,7.22,7.4,7.22s7.34-3.22,7.4-7.22h-14.79Z"/>
          <path class="cls-4" d="M95.3,44.09c.05,4,3.34,7.22,7.4,7.22s7.34-3.22,7.4-7.22h-14.79Z"/>
          <path class="cls-4" d="M110.04,44.09c.05,4,3.34,7.22,7.4,7.22s7.34-3.22,7.4-7.22h-14.79Z"/>
          <path class="cls-4" d="M6.85,44.09c.05,4,3.34,7.22,7.4,7.22s7.34-3.22,7.4-7.22H6.85Z"/>
          <path class="cls-4" d="M21.58,44.09c.05,4,3.34,7.22,7.4,7.22s7.34-3.22,7.4-7.22h-14.79Z"/>
          <path class="cls-4" d="M36.32,44.09c.05,4,3.34,7.22,7.4,7.22s7.34-3.22,7.4-7.22h-14.79Z"/>
          <path class="cls-4" d="M51.05,44.09c.05,4,3.34,7.22,7.4,7.22s7.34-3.22,7.4-7.22h-14.79Z"/>
        </g>
      </g>
    </g>
  </g>
</svg>