<?xml version="1.0" encoding="UTF-8"?>
<svg id="Layer_2" data-name="Layer 2" xmlns="http://www.w3.org/2000/svg" viewBox="0 0 202.66 75.19">
  <defs>
    <style>
      .cls-1 {
        fill: #7d7d7d;
      }

      .cls-1, .cls-2, .cls-3, .cls-4, .cls-5, .cls-6 {
        stroke-miterlimit: 10;
      }

      .cls-1, .cls-2, .cls-5 {
        stroke: #fff;
      }

      .cls-1, .cls-3, .cls-4, .cls-5 {
        stroke-width: 2px;
      }

      .cls-2, .cls-3, .cls-5 {
        fill: none;
      }

      .cls-2, .cls-6 {
        stroke-width: 3px;
      }

      .cls-3, .cls-4 {
        stroke: #4a4a4a;
      }

      .cls-7 {
        fill: #d34140;
      }

      .cls-4 {
        fill: #fff;
      }

      .cls-6 {
        fill: #ae1f23;
        stroke: #262626;
      }
    </style>
  </defs>
  <g id="Layer_1-2" data-name="Layer 1">
    <g>
      <g>
        <polygon class="cls-7" points="136.96 14.31 65.21 14.31 73.94 1 127.62 1 136.96 14.31"/>
        <polygon class="cls-7" points="69.03 36.98 133.14 36.98 127.45 65.82 75.66 65.82 69.03 36.98"/>
        <line class="cls-1" x1="75.19" y1="41.46" x2="75.19" y2="14.31"/>
        <line class="cls-1" x1="127.62" y1="41.46" x2="127.62" y2="14.31"/>
        <line class="cls-1" x1="123.82" y1="75.02" x2="122.02" y2="65"/>
        <g>
          <path class="cls-4" d="M101.09,12.67c.03,2.43,2.03,4.39,4.5,4.39s4.46-1.96,4.5-4.39h-9Z"/>
          <path class="cls-4" d="M110.05,12.67c.03,2.43,2.03,4.39,4.5,4.39s4.46-1.96,4.5-4.39h-9Z"/>
          <path class="cls-4" d="M119.01,12.67c.03,2.43,2.03,4.39,4.5,4.39s4.46-1.96,4.5-4.39h-9Z"/>
          <path class="cls-4" d="M127.97,12.67c.03,2.43,2.03,4.39,4.5,4.39s4.46-1.96,4.5-4.39h-9Z"/>
          <path class="cls-4" d="M65.21,12.67c.03,2.43,2.03,4.39,4.5,4.39s4.46-1.96,4.5-4.39h-9Z"/>
          <path class="cls-4" d="M74.17,12.67c.03,2.43,2.03,4.39,4.5,4.39s4.46-1.96,4.5-4.39h-9Z"/>
          <path class="cls-4" d="M83.13,12.67c.03,2.43,2.03,4.39,4.5,4.39s4.46-1.96,4.5-4.39h-9Z"/>
          <path class="cls-4" d="M92.09,12.67c.03,2.43,2.03,4.39,4.5,4.39s4.46-1.96,4.5-4.39h-9Z"/>
        </g>
        <g>
          <line class="cls-6" x1="100.75" y1="39.93" x2="100.75" y2="65.82"/>
          <line class="cls-6" x1="85.24" y1="39.93" x2="85.24" y2="65.82"/>
          <line class="cls-2" x1="92.98" y1="39.93" x2="92.98" y2="65.82"/>
          <line class="cls-2" x1="108.54" y1="39.93" x2="108.54" y2="65.82"/>
          <line class="cls-6" x1="116.32" y1="39.93" x2="116.32" y2="65.82"/>
          <line class="cls-2" x1="75.3" y1="40.63" x2="80.4" y2="65.82"/>
          <line class="cls-2" x1="126.87" y1="40.63" x2="121.77" y2="65.82"/>
          <line class="cls-2" x1="100.75" y1="12.53" x2="100.75" y2=".95"/>
          <line class="cls-2" x1="85.24" y1="12.53" x2="85.24" y2=".95"/>
          <line class="cls-6" x1="92.98" y1="12.53" x2="92.98" y2=".95"/>
          <line class="cls-6" x1="108.54" y1="12.53" x2="108.54" y2=".95"/>
          <line class="cls-2" x1="116.32" y1="12.53" x2="116.32" y2=".95"/>
          <line class="cls-6" x1="75.3" y1="12.22" x2="80.4" y2=".95"/>
          <line class="cls-6" x1="126.87" y1="12.22" x2="121.77" y2=".95"/>
        </g>
        <g>
          <path class="cls-4" d="M102.1,36.98c.03,2.43,1.76,4.39,3.89,4.39s3.86-1.96,3.89-4.39h-7.78Z"/>
          <path class="cls-4" d="M109.85,36.98c.03,2.43,1.76,4.39,3.89,4.39s3.86-1.96,3.89-4.39h-7.78Z"/>
          <path class="cls-4" d="M117.6,36.98c.03,2.43,1.76,4.39,3.89,4.39s3.86-1.96,3.89-4.39h-7.78Z"/>
          <path class="cls-4" d="M125.36,36.98c.03,2.43,1.76,4.39,3.89,4.39s3.86-1.96,3.89-4.39h-7.78Z"/>
          <path class="cls-4" d="M71.06,36.98c.03,2.43,1.76,4.39,3.89,4.39s3.86-1.96,3.89-4.39h-7.78Z"/>
          <path class="cls-4" d="M78.81,36.98c.03,2.43,1.76,4.39,3.89,4.39s3.86-1.96,3.89-4.39h-7.78Z"/>
          <path class="cls-4" d="M86.57,36.98c.03,2.43,1.76,4.39,3.89,4.39s3.86-1.96,3.89-4.39h-7.78Z"/>
          <path class="cls-4" d="M94.32,36.98c.03,2.43,1.76,4.39,3.89,4.39s3.86-1.96,3.89-4.39h-7.78Z"/>
        </g>
        <polygon class="cls-3" points="136.08 12.67 66.09 12.67 74.61 1 126.97 1 136.08 12.67"/>
        <circle class="cls-5" cx="77.95" cy="65.82" r="7.63"/>
      </g>
      <g>
        <polygon class="cls-7" points="72.83 14.31 1.08 14.31 9.81 1 63.49 1 72.83 14.31"/>
        <polygon class="cls-7" points="4.9 36.98 69.01 36.98 63.32 65.82 11.53 65.82 4.9 36.98"/>
        <line class="cls-1" x1="11.06" y1="41.46" x2="11.06" y2="14.31"/>
        <line class="cls-1" x1="63.49" y1="41.46" x2="63.49" y2="14.31"/>
        <line class="cls-1" x1="59.69" y1="75.02" x2="57.89" y2="65"/>
        <g>
          <path class="cls-4" d="M36.96,12.67c.03,2.43,2.03,4.39,4.5,4.39s4.46-1.96,4.5-4.39h-9Z"/>
          <path class="cls-4" d="M45.92,12.67c.03,2.43,2.03,4.39,4.5,4.39s4.46-1.96,4.5-4.39h-9Z"/>
          <path class="cls-4" d="M54.88,12.67c.03,2.43,2.03,4.39,4.5,4.39s4.46-1.96,4.5-4.39h-9Z"/>
          <path class="cls-4" d="M63.84,12.67c.03,2.43,2.03,4.39,4.5,4.39s4.46-1.96,4.5-4.39h-9Z"/>
          <path class="cls-4" d="M1.08,12.67c.03,2.43,2.03,4.39,4.5,4.39s4.46-1.96,4.5-4.39H1.08Z"/>
          <path class="cls-4" d="M10.04,12.67c.03,2.43,2.03,4.39,4.5,4.39s4.46-1.96,4.5-4.39h-9Z"/>
          <path class="cls-4" d="M19,12.67c.03,2.43,2.03,4.39,4.5,4.39s4.46-1.96,4.5-4.39h-9Z"/>
          <path class="cls-4" d="M27.96,12.67c.03,2.43,2.03,4.39,4.5,4.39s4.46-1.96,4.5-4.39h-9Z"/>
        </g>
        <g>
          <line class="cls-6" x1="36.63" y1="39.93" x2="36.63" y2="65.82"/>
          <line class="cls-6" x1="21.11" y1="39.93" x2="21.11" y2="65.82"/>
          <line class="cls-2" x1="28.85" y1="39.93" x2="28.85" y2="65.82"/>
          <line class="cls-2" x1="44.41" y1="39.93" x2="44.41" y2="65.82"/>
          <line class="cls-6" x1="52.19" y1="39.93" x2="52.19" y2="65.82"/>
          <line class="cls-2" x1="11.17" y1="40.63" x2="16.28" y2="65.82"/>
          <line class="cls-2" x1="62.74" y1="40.63" x2="57.64" y2="65.82"/>
          <line class="cls-2" x1="36.63" y1="12.53" x2="36.63" y2=".95"/>
          <line class="cls-2" x1="21.11" y1="12.53" x2="21.11" y2=".95"/>
          <line class="cls-6" x1="28.85" y1="12.53" x2="28.85" y2=".95"/>
          <line class="cls-6" x1="44.41" y1="12.53" x2="44.41" y2=".95"/>
          <line class="cls-2" x1="52.19" y1="12.53" x2="52.19" y2=".95"/>
          <line class="cls-6" x1="11.17" y1="12.22" x2="16.28" y2=".95"/>
          <line class="cls-6" x1="62.74" y1="12.22" x2="57.64" y2=".95"/>
        </g>
        <g>
          <path class="cls-4" d="M37.97,36.98c.03,2.43,1.76,4.39,3.89,4.39s3.86-1.96,3.89-4.39h-7.78Z"/>
          <path class="cls-4" d="M45.72,36.98c.03,2.43,1.76,4.39,3.89,4.39s3.86-1.96,3.89-4.39h-7.78Z"/>
          <path class="cls-4" d="M53.48,36.98c.03,2.43,1.76,4.39,3.89,4.39s3.86-1.96,3.89-4.39h-7.78Z"/>
          <path class="cls-4" d="M61.23,36.98c.03,2.43,1.76,4.39,3.89,4.39s3.86-1.96,3.89-4.39h-7.78Z"/>
          <path class="cls-4" d="M6.93,36.98c.03,2.43,1.76,4.39,3.89,4.39s3.86-1.96,3.89-4.39h-7.78Z"/>
          <path class="cls-4" d="M14.69,36.98c.03,2.43,1.76,4.39,3.89,4.39s3.86-1.96,3.89-4.39h-7.78Z"/>
          <path class="cls-4" d="M22.44,36.98c.03,2.43,1.76,4.39,3.89,4.39s3.86-1.96,3.89-4.39h-7.78Z"/>
          <path class="cls-4" d="M30.19,36.98c.03,2.43,1.76,4.39,3.89,4.39s3.86-1.96,3.89-4.39h-7.78Z"/>
        </g>
        <polygon class="cls-3" points="71.95 12.67 1.97 12.67 10.48 1 62.84 1 71.95 12.67"/>
        <circle class="cls-5" cx="13.82" cy="65.82" r="7.63"/>
      </g>
      <g>
        <polygon class="cls-7" points="201.5 14.31 129.74 14.31 138.47 1 192.16 1 201.5 14.31"/>
        <polygon class="cls-7" points="133.57 36.98 197.67 36.98 191.98 65.82 140.2 65.82 133.57 36.98"/>
        <line class="cls-1" x1="139.72" y1="41.46" x2="139.72" y2="14.31"/>
        <line class="cls-1" x1="192.16" y1="41.46" x2="192.16" y2="14.31"/>
        <line class="cls-1" x1="188.36" y1="75.02" x2="186.56" y2="65"/>
        <g>
          <path class="cls-4" d="M165.62,12.67c.03,2.43,2.03,4.39,4.5,4.39s4.46-1.96,4.5-4.39h-9Z"/>
          <path class="cls-4" d="M174.58,12.67c.03,2.43,2.03,4.39,4.5,4.39s4.46-1.96,4.5-4.39h-9Z"/>
          <path class="cls-4" d="M183.54,12.67c.03,2.43,2.03,4.39,4.5,4.39s4.46-1.96,4.5-4.39h-9Z"/>
          <path class="cls-4" d="M192.5,12.67c.03,2.43,2.03,4.39,4.5,4.39s4.46-1.96,4.5-4.39h-9Z"/>
          <path class="cls-4" d="M129.74,12.67c.03,2.43,2.03,4.39,4.5,4.39s4.46-1.96,4.5-4.39h-9Z"/>
          <path class="cls-4" d="M138.71,12.67c.03,2.43,2.03,4.39,4.5,4.39s4.46-1.96,4.5-4.39h-9Z"/>
          <path class="cls-4" d="M147.66,12.67c.03,2.43,2.03,4.39,4.5,4.39s4.46-1.96,4.5-4.39h-9Z"/>
          <path class="cls-4" d="M156.63,12.67c.03,2.43,2.03,4.39,4.5,4.39s4.46-1.96,4.5-4.39h-9Z"/>
        </g>
        <g>
          <line class="cls-6" x1="165.29" y1="39.93" x2="165.29" y2="65.82"/>
          <line class="cls-6" x1="149.78" y1="39.93" x2="149.78" y2="65.82"/>
          <line class="cls-2" x1="157.51" y1="39.93" x2="157.51" y2="65.82"/>
          <line class="cls-2" x1="173.08" y1="39.93" x2="173.08" y2="65.82"/>
          <line class="cls-6" x1="180.86" y1="39.93" x2="180.86" y2="65.82"/>
          <line class="cls-2" x1="139.84" y1="40.63" x2="144.94" y2="65.82"/>
          <line class="cls-2" x1="191.41" y1="40.63" x2="186.3" y2="65.82"/>
          <line class="cls-2" x1="165.29" y1="12.53" x2="165.29" y2=".95"/>
          <line class="cls-2" x1="149.78" y1="12.53" x2="149.78" y2=".95"/>
          <line class="cls-6" x1="157.51" y1="12.53" x2="157.51" y2=".95"/>
          <line class="cls-6" x1="173.08" y1="12.53" x2="173.08" y2=".95"/>
          <line class="cls-2" x1="180.86" y1="12.53" x2="180.86" y2=".95"/>
          <line class="cls-6" x1="139.84" y1="12.22" x2="144.94" y2=".95"/>
          <line class="cls-6" x1="191.41" y1="12.22" x2="186.3" y2=".95"/>
        </g>
        <g>
          <path class="cls-4" d="M166.64,36.98c.03,2.43,1.76,4.39,3.89,4.39s3.86-1.96,3.89-4.39h-7.78Z"/>
          <path class="cls-4" d="M174.39,36.98c.03,2.43,1.76,4.39,3.89,4.39s3.86-1.96,3.89-4.39h-7.78Z"/>
          <path class="cls-4" d="M182.14,36.98c.03,2.43,1.76,4.39,3.89,4.39s3.86-1.96,3.89-4.39h-7.78Z"/>
          <path class="cls-4" d="M189.89,36.98c.03,2.43,1.76,4.39,3.89,4.39s3.86-1.96,3.89-4.39h-7.78Z"/>
          <path class="cls-4" d="M135.6,36.98c.03,2.43,1.76,4.39,3.89,4.39s3.86-1.96,3.89-4.39h-7.78Z"/>
          <path class="cls-4" d="M143.35,36.98c.03,2.43,1.76,4.39,3.89,4.39s3.86-1.96,3.89-4.39h-7.78Z"/>
          <path class="cls-4" d="M151.1,36.98c.03,2.43,1.76,4.39,3.89,4.39s3.86-1.96,3.89-4.39h-7.78Z"/>
          <path class="cls-4" d="M158.85,36.98c.03,2.43,1.76,4.39,3.89,4.39s3.86-1.96,3.89-4.39h-7.78Z"/>
        </g>
        <polygon class="cls-3" points="200.61 12.67 130.63 12.67 139.14 1 191.5 1 200.61 12.67"/>
        <circle class="cls-5" cx="142.48" cy="65.82" r="7.63"/>
      </g>
    </g>
  </g>
</svg>